<svg width="16" height="16" viewBox="0 0 16 16" fill="none" xmlns="http://www.w3.org/2000/svg">
<path d="M7.25094 4.0918C7.82284 2.92575 8.10906 1.64034 8.08594 0.341797C8.06281 1.64034 8.34903 2.92575 8.92094 4.0918C9.60756 5.39988 10.7259 6.42988 12.0859 7.0068C13.1864 7.51254 14.3757 7.79629 15.5859 7.8418C14.3757 7.88731 13.1864 8.17105 12.0859 8.6768C10.7259 9.25371 9.60756 10.2837 8.92094 11.5918C8.34903 12.7578 8.06281 14.0433 8.08594 15.3418C8.10906 14.0433 7.82284 12.7578 7.25094 11.5918C6.56431 10.2837 5.44597 9.25371 4.08594 8.6768C2.98552 8.17105 1.79616 7.88731 0.585938 7.8418C1.79616 7.79629 2.98552 7.51254 4.08594 7.0068C5.44597 6.42988 6.56431 5.39988 7.25094 4.0918Z" fill="#D1D1D1"/>
</svg>
