<svg width="144" height="145" viewBox="0 0 144 145" fill="none" xmlns="http://www.w3.org/2000/svg">
<circle cx="70.4229" cy="74.0605" r="44" transform="rotate(-180 70.4229 74.0605)" fill="#030303"/>
<path d="M26.8542 71.51C27.2334 68.9378 25.6831 65.1917 22.5974 61.9874C19.5117 58.7832 14.908 56.0021 11.5443 55.5063C9.36787 55.1855 8.68678 55.6915 8.56429 56.5226C8.44179 57.3536 8.99912 57.9614 9.86971 58.0897C11.2943 58.2997 12.4295 57.4562 15.16 57.8587C17.7322 58.2378 20.6809 60.4515 22.3587 62.2353C24.5717 64.5022 25.0774 66.5579 24.8499 68.1013C24.6632 69.3676 23.6014 70.2623 21.7811 69.994C19.3671 69.6381 16.5301 67.7644 11.1996 63.0567C9.73462 61.7491 8.61287 60.856 8.11135 60.4182L7.96347 60.5985C8.66742 61.3088 8.98857 61.5987 8.88358 62.311C8.65608 63.8543 7.53009 65.1844 7.36676 66.2924C7.2151 67.3213 8.28309 68.8534 9.70849 70.1552C10.8069 71.2066 12.0986 72.0439 13.0088 72.1781C13.8794 72.3064 14.3905 71.8561 14.4838 71.223C14.5713 70.6294 14.2235 69.9716 13.3925 69.8491C12.4032 69.7033 11.5626 70.4689 10.6128 70.3289C10.0192 70.2414 9.41067 69.7069 9.54483 68.7968C9.68483 67.847 10.9366 66.2121 11.135 64.8666C11.2225 64.2731 11.225 63.7074 11.04 63.3162C16.061 67.6548 19.729 73.4921 23.8841 74.1046C25.467 74.3379 26.5801 73.3699 26.8542 71.51Z" fill="#EFEFEF"/>
<path d="M29.8618 58.3117C31.1187 55.5437 29.6805 51.5519 27.3683 47.6465L27.1399 47.7625C29.4423 51.8831 29.6948 54.3261 28.9836 55.8922C28.3221 57.349 26.6902 57.7502 24.0679 56.5594C22.9389 56.0467 21.707 55.1799 20.5613 54.2203C22.2244 48.913 21.821 41.4813 18.9438 40.1748C17.3777 39.4636 15.6501 40.656 14.6743 42.8049C12.2763 48.0859 17.199 57.1745 23.3906 59.986C26.2314 61.2759 28.8364 60.5698 29.8618 58.3117ZM16.945 42.2545C19.968 43.6272 21.9066 49.0323 20.2666 53.9986C16.6735 50.7855 13.6095 45.9237 14.9657 42.9372C15.3461 42.0995 16.0345 41.841 16.945 42.2545Z" fill="#EFEFEF"/>
<path d="M42.0207 54.5977C45.9458 49.9545 47.3721 45.9748 45.081 44.038C43.798 42.9535 41.9825 43.3043 38.0772 45.1359L32.2908 47.8915C30.708 48.6485 29.9636 48.9096 29.3831 48.419C28.8027 47.9283 28.8963 47.0122 29.403 45.6073L29.8369 44.3505C30.8116 44.1269 31.6383 43.8305 32.4388 42.8836C35.4602 39.3095 34.4285 33.0949 31.0071 30.2026C29.938 29.2988 28.58 28.6746 27.4221 28.7433L27.389 28.3487C27.2851 27.1085 27.3622 26.3357 27.7754 25.847C28.3952 25.1138 29.1327 25.1088 29.7267 24.4062C30.2431 23.7952 30.3203 23.0224 29.7093 22.506C29.0984 21.9895 28.3234 22.2247 27.8327 22.8051C26.8256 23.9965 26.916 26.4299 27.0813 28.4029L27.1097 28.7411C26.0433 28.8872 24.9959 29.2588 24.1696 30.2364C21.0191 33.9631 22.3327 40.1542 25.6623 42.9689C26.7926 43.9244 28.3502 44.5602 29.5293 44.4047L29.1164 45.5746C28.0819 48.4712 27.9887 50.0685 29.1495 51.0498C30.1881 51.9278 31.6043 51.5537 33.1354 50.8577L34.3378 50.3028L33.8242 51.9637C32.7031 55.5204 32.0235 58.9266 33.2759 59.9854C35.1393 61.5606 39.2317 57.8968 42.0207 54.5977ZM32.0959 42.8555C31.2179 43.8942 30.3018 43.8006 29.2021 42.871C26.0557 40.2112 22.6838 32.4896 24.5689 30.2597C25.3436 29.3432 26.2455 29.2676 27.3452 30.1973C30.5833 32.9346 33.9552 40.6561 32.0959 42.8555ZM41.8796 54.2689C39.2972 57.3237 36.5193 59.0608 34.8392 57.6405C33.4951 56.5042 33.5222 54.1178 34.1413 52.0223L34.6924 50.1312C34.831 50.0912 39.2764 47.9305 39.4408 47.8599C42.3598 46.4516 43.6538 45.9742 44.5702 46.7489C45.7616 47.756 45.2883 50.2366 41.8796 54.2689Z" fill="#EFEFEF"/>
<path d="M50.4274 35.4968C51.7959 34.6678 52.5678 32.2362 52.9534 27.7001L52.6653 27.6876C52.2921 31.9355 51.591 33.2487 51.1805 33.4974C50.8726 33.6839 50.516 33.7128 50.2258 33.2338C49.8942 32.6864 49.6811 30.9449 49.4213 29.5122L46.6677 14.1574L46.4551 14.1926C46.5521 16.0512 45.9672 17.2473 44.472 18.948C42.994 18.2065 40.8992 17.6048 39.1885 18.641C34.0566 21.7495 36.0497 35.6944 38.3707 39.5263C39.4484 41.3053 40.9504 41.2373 42.011 40.5948C43.7217 39.5587 44.1701 36.9019 44.3038 32.7991L44.6779 20.6004L46.5797 30.7658C46.8115 32.0751 47.0319 33.9058 47.6122 34.8638C48.1717 35.7875 49.23 36.2221 50.4274 35.4968ZM42.7983 38.5747C42.3193 38.8648 41.8239 38.5102 41.4094 37.8259C39.5236 34.7125 36.5156 20.868 40.0395 18.7334C41.1001 18.091 43.0571 18.5424 44.3911 19.2777L43.9679 32.8623C43.904 35.6134 43.5168 38.1395 42.7983 38.5747Z" fill="#EFEFEF"/>
<path d="M66.1196 30.7671C67.653 30.4807 69.2786 28.5087 71.2301 24.3599L70.9648 24.2467C69.1192 28.0909 68.0005 29.073 67.5286 29.1611C67.1748 29.2272 66.8308 29.1287 66.728 28.5782C66.6032 27.9098 67.0418 26.1188 67.4039 24.7897L69.8624 15.948C70.3057 14.4003 70.6584 12.5847 70.4381 11.4051C70.2471 10.3828 69.4024 9.56396 68.1049 9.80632C66.0209 10.1956 64.9112 12.3153 62.6128 17.2207L56.2957 30.893L59.1479 17.6237C59.4314 16.3093 59.8233 14.4864 59.6251 13.4247C59.4268 12.3631 58.5894 11.5836 57.2132 11.8406C55.6404 12.1344 54.0075 14.0671 52.0634 18.2552L52.3287 18.3684C54.2136 14.5169 55.293 13.5421 55.8434 13.4393C56.1973 13.3732 56.5166 13.5577 56.6048 14.0296C56.7296 14.698 56.2836 16.4497 56.0001 17.7641L52.7706 32.9349C53.2818 32.8394 53.8569 32.6506 54.3288 32.5625C54.8399 32.467 55.4444 32.4355 55.9949 32.3327L62.8928 17.4126C65.1199 12.5612 65.9487 11.5519 66.5778 11.4344C67.0103 11.3536 67.3296 11.5381 67.4398 12.1279C67.572 12.8356 67.2392 14.322 66.6481 16.3856L64.2709 25.0087C63.9334 26.2518 63.4874 28.0034 63.7077 29.183C63.906 30.2447 64.7434 31.0242 66.1196 30.7671Z" fill="#EFEFEF"/>
<path d="M64.6863 37.4439C69.3941 38.5673 76.8984 35.3821 82.2206 26.8648L90.2615 14.0204L95.0471 15.1623L95.1214 14.8511L90.4525 13.7369L91.2257 12.5644C93.9183 8.51887 95.414 7.76546 97.087 8.16468C98.799 8.57319 99.8137 10.0079 100.942 10.2771C101.759 10.4721 102.523 10.202 102.708 9.4238C102.903 8.60674 102.237 7.95416 101.186 7.70349C96.6338 6.61723 91.5224 8.564 87.6122 13.0592L84.1105 12.2236L84.0363 12.5349L87.3823 13.3333C86.7501 14.0872 85.8804 15.3189 85.4038 16.1099L76.7732 30.0473C73.8264 34.8135 70.701 37.3987 68.5222 36.8788C67.1993 36.5631 66.2235 35.1377 65.0563 34.8592C64.2003 34.6549 63.4275 34.964 63.2418 35.7421C63.0561 36.5203 63.6358 37.1932 64.6863 37.4439Z" fill="#EFEFEF"/>
<path d="M86.73 33.3269L96.8227 26.3762C100.629 23.7246 103.199 23.2743 105.691 23.6303C106.569 23.7423 107.678 23.7434 108.077 22.9144C108.355 22.3378 108.2 21.5529 107.443 21.1886C105.208 20.1131 100.322 23.5324 96.6571 26.0745L88.194 31.9451L97.6151 23.1618C98.5853 22.2526 99.8545 20.999 100.34 19.9898C100.809 19.0167 100.595 17.8928 99.3333 17.2856C97.8916 16.5918 95.4677 17.2008 91.4222 19.4267L91.5691 19.6749C95.385 17.6494 96.7785 17.521 97.2831 17.7638C97.6075 17.92 97.7557 18.2576 97.5476 18.6902C97.2527 19.3029 95.9287 20.4858 94.9585 21.3949L83.7744 31.9045C84.243 32.13 84.8183 32.3181 85.2869 32.5436C85.7194 32.7517 86.2614 33.1014 86.73 33.3269Z" fill="#EFEFEF"/>
<path d="M117.42 25.4054C118.336 26.1182 119.578 26.0208 120.315 25.0741C121.052 24.1274 120.867 22.8678 119.952 22.155C119.037 21.4422 117.802 21.5957 117.065 22.5424C116.327 23.4891 116.505 24.6926 117.42 25.4054ZM109.747 31.5465C110.926 30.9439 112.502 30.0925 113.24 29.1458C113.903 28.2937 113.932 27.1501 112.859 26.3144C111.597 25.3312 109.043 25.4207 104.674 26.7332L104.765 27.0069C108.899 25.8661 110.312 26.0039 110.723 26.3234C111.007 26.5446 111.161 26.8675 110.817 27.3093C110.399 27.8458 108.774 28.7603 107.563 29.3383L99.0212 33.5353C97.842 34.1379 96.2662 34.9893 95.5288 35.9361C94.8652 36.7881 94.8363 37.9318 95.9093 38.7675C97.1715 39.7506 99.7256 39.6612 104.126 38.3732L104.035 38.0995C99.9013 39.2403 98.456 39.0779 98.0458 38.7584C97.7618 38.5372 97.6076 38.2143 97.9517 37.7725C98.3696 37.2361 100.026 36.3461 101.205 35.7435L109.747 31.5465Z" fill="#EFEFEF"/>
<path d="M102.758 44.803C104.704 47.1389 108.924 47.5803 113.446 47.1972L113.441 46.9411C108.729 47.2217 106.42 46.3864 105.319 45.0648C104.295 43.8354 104.644 42.1915 106.857 40.3483C107.809 39.5547 109.126 38.8226 110.488 38.2083C114.544 42.0145 121.411 44.8841 123.839 42.8616C125.16 41.7608 124.838 39.6865 123.328 37.8732C119.616 33.4167 109.291 33.8958 104.066 38.2478C101.669 40.2447 101.171 42.8975 102.758 44.803ZM122.836 40.1573C120.285 42.2821 114.574 41.6765 110.816 38.0394C115.272 36.2018 120.983 35.5578 123.082 38.078C123.671 38.7849 123.604 39.5172 122.836 40.1573Z" fill="#EFEFEF"/>
<path d="M112.438 61.4463C113.019 62.8941 115.271 64.1027 119.721 65.2053L119.78 64.923C115.649 63.8647 114.467 62.9596 114.289 62.5141C114.155 62.18 114.184 61.8234 114.704 61.6149C115.335 61.3618 117.177 61.4418 118.551 61.537L127.703 62.2192C129.308 62.3513 131.157 62.3422 132.271 61.8954C133.236 61.5083 133.874 60.5198 133.383 59.2947C132.593 57.327 130.298 56.6533 125.037 55.3584L110.394 51.8366L123.965 52.0392C125.309 52.0602 127.174 52.0881 128.176 51.6861C129.178 51.284 129.779 50.3104 129.258 49.011C128.662 47.526 126.448 46.3025 121.96 45.2149L121.901 45.4972C126.047 46.5926 127.214 47.4606 127.422 47.9803C127.556 48.3144 127.438 48.6636 126.992 48.8423C126.361 49.0955 124.556 49.0006 123.212 48.9796L107.702 48.7789C107.896 49.2615 108.193 49.7886 108.372 50.2341C108.566 50.7167 108.715 51.3034 108.923 51.8231L124.904 55.6705C130.097 56.906 131.249 57.5214 131.487 58.1154C131.651 58.5238 131.533 58.873 130.976 59.0964C130.308 59.3644 128.785 59.3287 126.645 59.1525L117.724 58.5073C116.439 58.4193 114.634 58.3245 113.52 58.7712C112.518 59.1733 111.917 60.1469 112.438 61.4463Z" fill="#EFEFEF"/>
<path d="M131.659 79.488C132.922 78.5834 134.534 77.1121 134.495 75.1124C134.38 69.1136 121.316 63.8447 116.836 63.9311C114.757 63.9713 114.062 65.3049 114.086 66.5447C114.125 68.5443 116.118 70.2262 119.6 72.3994L130.047 78.879L120.378 75.3849C118.928 74.8528 117.314 74.1638 116.274 74.1839C115.114 74.2063 114.248 74.9431 114.274 76.2629C114.305 77.8626 116.023 79.8298 119.753 82.3983L119.909 82.1553C116.42 79.6621 115.635 78.397 115.626 77.9171C115.619 77.5572 115.773 77.2342 116.333 77.2233C116.973 77.211 118.627 77.9392 119.957 78.4336L143.648 87.098L143.725 86.8965C142.063 85.8084 141.966 82.8497 141.928 80.8901L141.909 79.8903L141.629 79.8957L141.653 81.1354C141.674 82.2152 141.401 82.5806 140.801 82.5921C140.441 82.5991 139.958 82.4484 139.555 82.2961L131.659 79.488ZM115.439 68.2389C115.428 67.679 115.984 67.4283 116.784 67.4128C120.423 67.3426 133.909 71.6831 133.989 75.8023C134.013 77.0421 132.68 78.4681 131.336 79.2942L119.795 72.1156C117.447 70.6806 115.455 69.0788 115.439 68.2389Z" fill="#EFEFEF"/>
<path d="M113.561 82.377C113.19 83.9333 114.378 86.1908 117.336 89.6518L117.547 89.4555C114.786 86.2059 114.353 84.7455 114.464 84.2786C114.548 83.9285 114.778 83.6543 115.323 83.7843C115.984 83.9422 117.432 85.1102 118.557 85.9131L139.204 100.545L139.329 100.369C137.993 98.8991 138.623 96.0885 139.087 94.1431L139.329 93.1315L139.056 93.0665L138.768 94.2727C138.508 95.3621 138.153 95.6473 137.569 95.508C137.219 95.4245 136.798 95.1185 136.446 94.87L119.67 82.9712C118.575 82.2165 117.195 81.1059 115.989 80.8181C114.939 80.5674 113.877 81.0542 113.561 82.377Z" fill="#EFEFEF"/>
<path d="M109.992 93.9134L112.704 95.3774C116.682 105.526 119.828 109.831 122.126 110.958C123.167 111.469 123.808 110.981 124.09 110.406C124.459 109.652 123.988 108.887 123.162 108.481C122.48 108.147 121.334 107.941 120.615 107.589C117.958 106.285 116.544 103.899 113.189 95.6599C115.041 96.7906 120.467 99.8975 122.873 101.078C125.1 102.17 127.63 103.188 128.616 101.177C129.497 99.381 127.883 96.4954 125.909 93.4336L125.66 93.5786C127.49 96.5699 128.36 98.066 128.025 98.7483C127.497 99.8257 125.737 98.9626 123.834 98.0291C120.781 96.5319 114.618 93.0192 111.473 91.165L111.071 89.9874C109.314 84.8488 108.183 79.7054 109.011 78.0175C109.786 76.4373 111.055 76.2129 111.583 75.1356C112.023 74.2377 111.767 73.4883 111.121 73.1713C110.438 72.8366 109.654 73.1647 109.073 74.3498C107.276 78.0129 108.792 84.4593 110.75 90.0972L111.225 91.4889C111.137 91.6685 111.085 91.8656 110.891 92.2607C110.698 92.6557 110.186 93.5183 109.992 93.9134Z" fill="#EFEFEF"/>
<path d="M102.163 126.929C103.635 127.425 105.771 127.873 107.371 126.673C112.171 123.073 108.811 109.393 106.123 105.809C104.875 104.145 103.387 104.361 102.395 105.105C100.795 106.305 100.595 108.905 100.867 113.001L101.715 125.265L98.8994 115.377C98.4834 113.889 98.0994 112.177 97.4754 111.345C96.7794 110.417 95.6754 110.145 94.6194 110.937C93.3394 111.897 92.7474 114.441 92.8434 118.969L93.1313 118.953C93.1154 114.665 93.6834 113.289 94.0674 113.001C94.3554 112.785 94.7074 112.721 95.0434 113.169C95.4274 113.681 95.8034 115.449 96.1794 116.817L102.995 141.105L103.203 141.049C103.115 139.065 105.459 137.257 107.027 136.081L107.827 135.481L107.659 135.257L106.667 136.001C105.803 136.649 105.347 136.641 104.987 136.161C104.771 135.873 104.611 135.393 104.499 134.977L102.163 126.929ZM101.811 107.193C102.259 106.857 102.787 107.161 103.267 107.801C105.451 110.713 109.811 124.193 106.515 126.665C105.523 127.409 103.587 127.161 102.131 126.553L101.211 112.993C101.003 110.249 101.139 107.697 101.811 107.193Z" fill="#EFEFEF"/>
<path d="M89.3575 139.519C88.2809 139.951 87.7397 141.073 88.1865 142.187C88.6332 143.3 89.8147 143.775 90.8913 143.343C91.9679 142.911 92.4571 141.767 92.0103 140.653C91.5636 139.539 90.4342 139.087 89.3575 139.519ZM87.9148 129.797C87.8418 131.119 87.784 132.91 88.2307 134.023C88.6328 135.026 89.6064 135.626 90.8687 135.12C92.3537 134.525 93.5623 132.273 94.6277 127.837L94.3454 127.778C93.25 131.924 92.4191 133.076 91.9365 133.27C91.6024 133.404 91.2458 133.374 91.0374 132.855C90.7842 132.223 90.8122 130.359 90.9223 129.022L91.5967 119.529C91.6697 118.206 91.7274 116.416 91.2807 115.302C90.8787 114.3 89.9051 113.699 88.6428 114.206C87.1578 114.801 85.9492 117.053 84.8467 121.503L85.129 121.562C86.2244 117.417 87.0923 116.25 87.575 116.056C87.9091 115.922 88.2656 115.951 88.4741 116.471C88.7273 117.102 88.6622 118.982 88.5892 120.304L87.9148 129.797Z" fill="#EFEFEF"/>
<path d="M79.7431 117.123C76.5538 117.693 73.7476 120.633 74.3956 124.256C74.6843 125.87 75.6719 127.075 76.9745 128.224L78.4628 129.502C80.3829 131.149 81.3493 132.236 81.6099 133.693C81.9832 135.78 80.5731 137.21 78.9193 137.506C77.2656 137.802 76.3484 136.991 75.6489 135.125C75.2619 134.097 74.726 133.827 74.0566 133.947C73.3873 134.067 72.8812 134.645 73.0079 135.353C73.2967 136.968 76.0226 138.349 78.8576 137.842C81.6926 137.335 84.1655 134.577 83.5527 131.151C83.271 129.576 82.0584 128.249 80.5237 126.939L79.1747 125.758C77.633 124.408 76.6777 123.157 76.4382 121.818C76.1213 120.046 77.3189 117.881 79.6026 117.473C81.6895 117.1 82.8387 118.072 83.8113 120.784C84.1913 121.772 84.82 122.107 85.4106 122.001C86.0406 121.888 86.5327 121.231 86.3989 120.483C86.0115 118.318 83.3263 116.482 79.7431 117.123Z" fill="#EFEFEF"/>
<path d="M69.6077 118.116C66.895 117.917 63.6874 120.088 60.4619 124.143L60.6496 124.317C63.9345 120.547 66.0053 119.656 67.6807 119.78C69.1568 119.888 70.1061 121.161 69.8835 124.193C69.4793 129.698 64.7552 137.774 60.6064 137.469C59.3298 137.375 58.5935 136.479 58.6843 135.242C58.7927 133.766 59.7805 132.876 59.8566 131.839C59.9094 131.121 59.4687 130.567 58.7507 130.514C57.7534 130.441 57.1158 131.477 56.9986 133.073C56.8141 135.586 58.671 137.608 60.6657 137.754C66.6097 138.191 72.91 129.95 73.3758 123.607C73.6101 120.415 71.8816 118.283 69.6077 118.116Z" fill="#EFEFEF"/>
<path d="M57.9029 116.288C51.143 113.809 43.5881 121.051 41.9218 125.595C40.531 129.388 42.3724 132.151 44.4379 132.908C51.2353 135.401 58.7527 128.145 60.419 123.601C61.8098 119.808 60.0059 117.059 57.9029 116.288ZM57.9805 116.657C59.1822 117.098 59.733 118.152 59.072 119.955C58.1632 122.433 54.4902 127.221 50.9112 130.127C48.4726 132.13 46.1254 133.186 44.3979 132.553C43.1586 132.098 42.6078 131.044 43.2688 129.242C44.1776 126.763 47.8506 121.975 51.4296 119.069C53.8682 117.067 56.2154 116.01 57.9805 116.657Z" fill="#EFEFEF"/>
<path d="M40.2922 106.063C39.0554 105.048 36.5252 105.042 32.0682 106.248L32.1522 106.524C36.3135 105.489 37.7541 105.688 38.187 106.043C38.4653 106.272 38.5295 106.635 38.225 107.006C37.7936 107.531 36.1657 108.317 34.9771 108.946L21.2544 116.209C21.6564 116.539 22.1709 116.857 22.5729 117.187C22.944 117.492 23.3879 117.96 23.7899 118.289L39.4699 113.875C44.5858 112.433 46.0408 112.489 46.5355 112.895C46.8447 113.148 46.8526 113.517 46.5481 113.888C46.0913 114.445 44.4689 115.287 42.5651 116.156L34.5977 119.811C33.4289 120.353 31.8319 121.164 31.0706 122.091C30.3855 122.926 30.2966 124.043 31.3788 124.932C32.6156 125.947 35.1711 125.922 39.6027 124.747L39.5187 124.471C35.4138 125.501 33.9168 125.307 33.4839 124.952C33.2056 124.723 33.1414 124.36 33.4459 123.989C33.8773 123.463 35.5306 122.647 36.7557 122.1L45.1315 118.262C46.5707 117.581 48.2184 116.708 48.9797 115.78C49.6648 114.945 49.6919 113.777 48.7025 112.965C47.1564 111.697 44.7468 112.048 39.4366 113.537L25.1672 117.557L37.1097 111.265C38.2983 110.636 39.8644 109.8 40.6003 108.903C41.2854 108.069 41.3434 106.926 40.2922 106.063Z" fill="#EFEFEF"/>
<path d="M30.789 92.8342C30.0204 91.4767 27.6276 90.5791 23.0701 90.0797L23.0491 90.3673C27.2842 90.8655 28.5762 91.6049 28.8126 92.0226C28.99 92.3359 29.0084 92.6932 28.5211 92.9691C27.9294 93.3041 26.093 93.4704 24.7183 93.5592L15.5573 94.1032C13.9495 94.1861 12.1177 94.4418 11.0735 95.033C10.1684 95.5454 9.66806 96.6101 10.3184 97.7588C11.3629 99.6036 13.728 99.9653 19.1138 100.547L34.0962 102.086L20.6195 103.694C19.2842 103.852 17.4327 104.073 16.4929 104.605C15.5531 105.137 15.0875 106.182 15.7773 107.401C16.5655 108.793 18.9235 109.71 23.5159 110.19L23.5369 109.902C19.2821 109.37 18.0098 108.665 17.7339 108.178C17.5566 107.864 17.6275 107.502 18.0452 107.266C18.6369 106.931 20.4385 106.784 21.7737 106.626L37.1715 104.757C36.9153 104.305 36.5501 103.822 36.3136 103.404C36.0574 102.952 35.8315 102.39 35.5556 101.903L19.2044 100.22C13.8929 99.6881 12.6692 99.2318 12.3539 98.6748C12.1371 98.2919 12.208 97.93 12.7301 97.6344C13.3567 97.2797 14.8706 97.1121 17.0144 97.0016L25.9422 96.4517C27.2275 96.3675 29.0291 96.2208 30.0734 95.6296C31.0132 95.0975 31.4788 94.0525 30.789 92.8342Z" fill="#EFEFEF"/>
<path d="M28.7438 87.3058C28.3547 85.7538 26.297 84.2903 22.0369 82.5954L21.9401 82.8671C25.8994 84.5137 26.9381 85.5316 27.0549 85.9972C27.1424 86.3464 27.065 86.6957 26.5218 86.8319C25.8623 86.9972 24.0091 86.6783 22.6798 86.4755L7.83533 84.5064L6.79448 80.3549L6.48408 80.4327L7.49575 84.4678L1.38327 83.6085L1.35431 83.822C3.08137 84.1313 4.56636 85.1198 5.51855 87.2729L8.28368 87.6106L8.97434 90.3653L9.28473 90.2875L8.63298 87.6879L22.8857 89.5992C24.2537 89.7923 26.2233 90.0821 27.3097 89.8097C28.3572 89.547 29.0843 88.6637 28.7438 87.3058Z" fill="#EFEFEF"/>
<path d="M64.9248 72.0713C69.1488 72.0713 71.3568 68.3273 71.3568 63.8633C71.3568 61.9913 70.9248 60.1193 70.1088 58.7273C71.1168 59.3993 72.3648 59.9273 73.9488 59.9273C76.5888 59.9273 79.4208 58.5353 81.0528 56.9993L63.1488 88.8713L63.5808 89.1113L82.2048 55.8953L81.7728 55.6553C79.4688 58.2953 76.0608 59.4473 73.9488 59.4473C72.0288 59.4473 70.4448 58.6313 69.0048 57.2393C67.9488 56.2793 66.6048 55.6553 64.9248 55.6553C60.7008 55.6553 57.9648 59.2073 57.9648 63.8633C57.9648 68.5673 60.7008 72.0713 64.9248 72.0713ZM65.0208 71.6393C61.9008 71.6393 61.4208 68.4713 61.4208 63.8633C61.4208 59.3033 61.9008 56.0873 65.0208 56.0873C68.7168 56.0873 70.8288 59.5433 70.8288 63.8633C70.8288 68.2313 68.7168 71.6393 65.0208 71.6393ZM80.2368 89.0633C84.4128 89.0633 86.6208 85.3193 86.6208 80.8553C86.6208 76.3913 84.4128 72.6473 80.2368 72.6473C75.9648 72.6473 73.2768 76.1993 73.2768 80.8553C73.2768 85.5593 75.9648 89.0633 80.2368 89.0633ZM80.3328 88.6313C77.2128 88.6313 76.7328 85.4633 76.7328 80.8553C76.7328 76.2953 77.2128 73.0793 80.3328 73.0793C84.0288 73.0793 86.1408 76.5353 86.1408 80.8553C86.1408 85.2233 84.0288 88.6313 80.3328 88.6313Z" fill="white"/>
</svg>
