<svg xmlns="http://www.w3.org/2000/svg" width="508.34" height="487.06" viewBox="0 0 508.34 487.06">
  <path d="M422.33.5v1c24.06,0,43,6.42,56.22,19.09C492.06,35,501,53.41,505.18,75.18c4.07,21.29,3.48,45.41-1.74,71.69s-15,54.07-29,82.62c-14.31,29.22-32.77,58.6-54.87,87.33-19.73,25.63-45.24,49.85-75.85,72a528.5,528.5,0,0,1-93.25,53.31c-62.07,27.84-128.66,44.47-178.11,44.47-23.8,0-42.44-4-53.9-11.45-38.29-25-6.52-88,41.56-183.28,4.55-9,9.26-18.35,14.06-28,17.56-35.11,41.42-69.64,70.91-102.63a585.55,585.55,0,0,1,92.45-83.38c32.24-23.4,66.08-42.75,97.84-55.94,32.14-13.36,62.23-20.42,87-20.42l0-1m0,0C320.08.52,146.45,117,73.23,263.43,17.64,374.6-24.78,448,18,475.94c12,7.83,30.93,11.62,54.45,11.62,95.16,0,264.89-62.09,348-170.13,90-117,114.43-238.13,58.86-297.55C465.4,6.61,445.74.5,422.31.5Z" transform="translate(-0.5 -0.5)" fill="#333"/>
</svg>
