<svg xmlns="http://www.w3.org/2000/svg" width="533.54" height="428.46" viewBox="0 0 533.54 428.46">
  <path d="M503.91,1.5c9.85,0,19.62.44,29.07,1.3-6.8,50.76-27.35,104.91-59.47,156.66a552.35,552.35,0,0,1-57.8,76.8,618.55,618.55,0,0,1-74.89,70.58C244.34,383.81,131.33,428,30.77,428c-9.86,0-19.63-.44-29.08-1.3C8.49,375.9,29,321.75,61.16,270A552.35,552.35,0,0,1,119,193.2a617.81,617.81,0,0,1,74.89-70.58C290.33,45.65,403.34,1.5,503.91,1.5h0m0-1C407.06.5,293.48,41.85,193.22,121.84,82.33,210.31,13.91,325.16.56,427.56Q15.35,429,30.77,429c96.84,0,210.42-41.35,310.68-121.34C452.34,219.15,520.76,104.3,534.11,1.9Q519.32.49,503.9.5Z" transform="translate(-0.56 -0.5)"/>
</svg>
