<svg xmlns="http://www.w3.org/2000/svg" width="387" height="387" viewBox="0 0 387 387">
  <path d="M192.27,1a297.56,297.56,0,0,1,77.46,26.22,246.22,246.22,0,0,1,61.64,43.56c17.57,17.21,31.25,36.37,40.65,57A157.75,157.75,0,0,1,372.29,260c-9.24,20.42-22.69,39.46-40,56.59a245.26,245.26,0,0,1-60.65,43.52,296.85,296.85,0,0,1-76.32,26.59,297.56,297.56,0,0,1-77.46-26.22A246.22,246.22,0,0,1,56.26,316.9c-17.57-17.21-31.25-36.37-40.65-57a157.75,157.75,0,0,1-.27-132.28C24.58,107.24,38,88.2,55.3,71.07A245.08,245.08,0,0,1,116,27.55,296.85,296.85,0,0,1,192.27,1m0-.64C81.79,22.89.31,100.82.31,193.51c0,93.55,83,172.08,195.05,193.81,110.48-22.57,192-100.5,192-193.19,0-93.55-83-172.08-195-193.81Z" transform="translate(-0.31 -0.32)"/>
</svg>
