<svg width="14" height="26" viewBox="0 0 14 26" fill="none" xmlns="http://www.w3.org/2000/svg">
<path d="M7.58955 0.364057C7.24134 0.0112865 6.67149 0.00915603 6.31677 0.359299L0.536185 6.0652C0.18146 6.41535 0.17618 6.98517 0.524394 7.33794C0.872607 7.69071 1.44245 7.69284 1.79718 7.3427L6.93547 2.27078L11.9794 7.38077C12.3277 7.73354 12.8975 7.73567 13.2522 7.38553C13.607 7.03538 13.6122 6.46556 13.264 6.11279L7.58955 0.364057ZM6.0826 25.6362C6.43081 25.989 7.00065 25.9911 7.35538 25.641L13.136 19.9351C13.4907 19.5849 13.496 19.0151 13.1478 18.6623C12.7995 18.3096 12.2297 18.3074 11.875 18.6576L6.73667 23.7295L1.6927 18.6195C1.34449 18.2667 0.774647 18.2646 0.419922 18.6147C0.0651964 18.9649 0.0599174 19.5347 0.408131 19.8875L6.0826 25.6362ZM6.04727 0.994682L5.82489 24.9989L7.62488 25.0056L7.84726 1.00141L6.04727 0.994682Z" fill="#666666"/>
</svg>
