<svg xmlns="http://www.w3.org/2000/svg" width="548" height="548" viewBox="0 0 548 548">
    <path d="M547.93,1.22a598,598,0,0,1-61,272.71A467.14,467.14,0,0,1,255.74,486.87a672.8,672.8,0,0,1-251,60.8c-1.53.1-3.08.18-4.64.24v0h0c0-.3,0-.61,0-.91a597.87,597.87,0,0,1,61-272.88A467.14,467.14,0,0,1,292.26,61.13,672.79,672.79,0,0,1,542.25.37C544.09.2,546,.07,547.9,0V.14h0C547.92.5,547.92.86,547.93,1.22Z" style="fill: #fefefe;fill-rule: evenodd" />
    <path d="M282.24,282.24h48.42V265.76H282.24V217.33H265.76v48.43H217.33v16.48h48.43v48.43h16.48Z" style="fill: #fefefe" />
</svg>