<svg xmlns="http://www.w3.org/2000/svg" width="600" height="352" viewBox="0 0 600 352">
  <path d="M210.08,297.14c-13.38,26.45-43.29,39.49-71.81,40.66,3.31-62.67-15.41-165.75,32.18-217.2C154.8,119.33,122.28,93.76,124,92.89c45.05-36.69,89.75-106.18,153.93-66,13.26-8.23,21.9-12.72,21.9-12.72s8.72,4.52,22.1,12.82C386.16-13.43,431,56.2,476,92.89c1.57,1-31,26.54-46.71,27.77,46.64,48.25,29.27,157.48,32.12,217.14-33.39-.93-68.12-20-77.08-53.93-43.8,2-85.17-31.18-84.5-76.62.65,45.43-40.62,78.69-84.43,76.62A76.17,76.17,0,0,1,210.08,297.14Z" fill-rule="evenodd"/>
</svg>
