<svg width="157" height="21" viewBox="0 0 157 21" fill="none" xmlns="http://www.w3.org/2000/svg">
<path d="M8.80495 15.4945V13.1222C8.85251 12.2193 8.59241 11.3269 8.06716 10.591C7.83655 10.289 7.53679 10.0469 7.19309 9.88489C6.8494 9.72292 6.47182 9.64587 6.09214 9.66023C5.7107 9.6527 5.33273 9.73388 4.98802 9.89737C4.64331 10.0609 4.3413 10.3022 4.10578 10.6023C3.57085 11.3048 3.29787 12.1719 3.33394 13.0541C3.29183 13.9424 3.54311 14.8199 4.04903 15.5512C4.27112 15.8595 4.56006 16.1136 4.89421 16.2944C5.22836 16.4752 5.59909 16.5782 5.97864 16.5955V20.432C5.1434 20.4173 4.3217 20.2185 3.57218 19.8496C2.82267 19.4807 2.16383 18.951 1.64269 18.2981C0.502059 16.8121 -0.0768437 14.9708 0.00819619 13.0995C-0.0682935 11.1662 0.507371 9.26328 1.64269 7.69657C2.11106 7.03506 2.7324 6.49657 3.45377 6.12699C4.17514 5.75741 4.97517 5.56769 5.78568 5.574C6.93499 5.52679 8.05657 5.93464 8.90711 6.70906C9.75884 7.54352 10.2722 8.66326 10.3486 9.85319H10.587C10.7749 8.84249 11.3185 7.93247 12.1193 7.28795C12.9249 6.63934 13.9344 6.29748 14.9684 6.32314C15.6934 6.31976 16.4088 6.49009 17.0545 6.81988C17.7003 7.14967 18.2577 7.62932 18.68 8.2187C19.6864 9.63319 20.1935 11.3423 20.1215 13.0768C20.2163 14.8828 19.6516 16.6618 18.5325 18.0824C17.9996 18.7054 17.3382 19.2055 16.5936 19.5484C15.849 19.8913 15.039 20.0688 14.2192 20.0688V16.3685C14.5971 16.3616 14.9693 16.2751 15.3116 16.1148C15.6538 15.9544 15.9584 15.7237 16.2056 15.4377C16.7133 14.7932 16.9713 13.9871 16.932 13.1676C16.9842 12.3537 16.7425 11.5482 16.251 10.8975C16.0302 10.6249 15.7493 10.4072 15.4302 10.2615C15.1112 10.1158 14.7627 10.0459 14.4122 10.0575C14.0439 10.0495 13.6788 10.1274 13.3458 10.2851C13.0129 10.4427 12.7212 10.6757 12.4939 10.9656C11.987 11.5841 11.7281 12.3689 11.7675 13.1676V15.4945H8.80495Z" fill="#FEFEFE"/>
<path d="M35.1943 20.1247H31.5167V17.8546H31.2783C30.9614 18.6611 30.3815 19.337 29.6325 19.7728C28.8146 20.252 27.8786 20.4919 26.931 20.4652C26.2409 20.4995 25.5511 20.3913 24.9047 20.1472C24.2583 19.903 23.6691 19.5283 23.174 19.0464C22.6878 18.5174 22.3127 17.8963 22.0709 17.2197C21.8292 16.5432 21.7256 15.825 21.7665 15.1077V5.81152H25.5463V14.1656C25.5463 16.152 26.477 17.1508 28.3385 17.1508C28.7499 17.18 29.1628 17.1199 29.5488 16.9746C29.9348 16.8293 30.2848 16.6022 30.5749 16.309C30.8649 16.0157 31.0881 15.6632 31.2291 15.2756C31.3701 14.888 31.4256 14.4745 31.3919 14.0634V5.81152H35.1943V20.1247Z" fill="#FEFEFE"/>
<path d="M38.3726 18.3547C37.2598 16.7806 36.7118 14.8766 36.8176 12.9518C36.7115 11.0252 37.2639 9.1199 38.384 7.54885C38.8859 6.90554 39.5336 6.39091 40.2738 6.04749C41.0139 5.70406 41.8252 5.54171 42.6405 5.57384C43.5442 5.55926 44.4348 5.79075 45.2171 6.24353C45.9574 6.67198 46.5479 7.31795 46.9083 8.09368H47.124V0.352539H50.9037V20.1254H47.2488V17.8552H47.0105C46.6359 18.6237 46.0334 19.2579 45.2852 19.6713C44.4748 20.1131 43.5633 20.3361 42.6405 20.3183C41.8242 20.3536 41.0113 20.1939 40.2692 19.8524C39.527 19.5109 38.8768 18.9975 38.3726 18.3547ZM41.5508 9.87573C40.9342 10.7828 40.6349 11.8683 40.6995 12.9631C40.6367 14.0613 40.9357 15.1499 41.5508 16.0618C41.8239 16.4299 42.1828 16.7256 42.5962 16.9234C43.0097 17.1212 43.4651 17.2151 43.9231 17.1969C44.3825 17.2141 44.8392 17.1198 45.2543 16.9221C45.6694 16.7245 46.0305 16.4293 46.3067 16.0618C46.9312 15.158 47.2349 14.0711 47.1694 12.9745C47.2299 11.8767 46.9223 10.7902 46.2954 9.88708C46.0103 9.53197 45.6492 9.24537 45.2386 9.04844C44.828 8.85152 44.3784 8.74928 43.9231 8.74928C43.4677 8.74928 43.0181 8.85152 42.6076 9.04844C42.197 9.24537 41.8358 9.53197 41.5508 9.88708V9.87573Z" fill="#FEFEFE"/>
<path d="M53.2637 5.81088H56.9186V8.08101H57.1456C57.3465 7.34669 57.806 6.70974 58.4396 6.28761C59.1237 5.80673 59.9416 5.55264 60.7778 5.56117C61.2686 5.54485 61.759 5.60615 62.2307 5.74278V9.14797C61.6613 8.97337 61.0664 8.89661 60.4713 8.92096C59.5678 8.87607 58.6816 9.18094 57.9969 9.77226C57.6739 10.0742 57.4203 10.4428 57.2538 10.8524C57.0872 11.262 57.0115 11.7028 57.0321 12.1445V20.09H53.2637V5.81088Z" fill="#FEFEFE"/>
<path d="M63.8788 19.1714C63.4465 18.7756 63.1057 18.2902 62.8803 17.7491C62.6548 17.2081 62.5501 16.6243 62.5735 16.0386C62.5502 15.4524 62.6679 14.8691 62.9168 14.3378C63.1657 13.8065 63.5384 13.3427 64.0037 12.9853C65.2165 12.1637 66.6478 11.7248 68.1126 11.7254L71.5178 11.5211V10.386C71.5178 9.13744 70.7119 8.51315 69.1001 8.51315C67.704 8.51315 66.83 8.95583 66.5235 9.84118H63.0957C63.1458 9.2057 63.3419 8.59037 63.6687 8.04307C63.9955 7.49577 64.4442 7.03126 64.9799 6.6857C66.291 5.87078 67.8193 5.47484 69.3612 5.55063C70.9383 5.44416 72.5033 5.88959 73.788 6.81055C74.3042 7.2466 74.7123 7.79642 74.9801 8.41681C75.248 9.0372 75.3683 9.71126 75.3317 10.386V20.1589H71.6313V18.252H71.4043C70.9806 18.9577 70.3653 19.5286 69.6298 19.8984C68.8944 20.2681 68.0691 20.4214 67.25 20.3405C66.018 20.3972 64.8113 19.9787 63.8788 19.1714ZM70.6892 16.7651C70.9701 16.549 71.1965 16.2701 71.3502 15.9508C71.5039 15.6315 71.5808 15.2806 71.5746 14.9263V13.882L68.6802 14.0636C67.0684 14.1771 66.2625 14.7447 66.2625 15.7889C66.262 16.0297 66.3183 16.2672 66.4268 16.4821C66.5352 16.6971 66.6928 16.8835 66.8868 17.0261C67.362 17.3451 67.9267 17.5042 68.4986 17.4802C69.2908 17.5115 70.068 17.2578 70.6892 16.7651Z" fill="#FEFEFE"/>
<path d="M84.4999 6.74057C85.7662 5.86386 87.2862 5.42902 88.8245 5.50335C90.3343 5.42726 91.8302 5.82405 93.1037 6.63842C93.6116 6.99488 94.0297 7.46442 94.3252 8.01004C94.6206 8.55565 94.7853 9.16243 94.8063 9.78255H91.3103C91.106 8.79504 90.2888 8.29561 88.8472 8.29561C88.2619 8.26881 87.6816 8.41487 87.1787 8.71559C86.971 8.82298 86.7974 8.98602 86.6771 9.18648C86.5568 9.38693 86.4947 9.6169 86.4976 9.85065C86.4976 10.509 87.1446 10.9857 88.4386 11.2695L91.1173 11.8597C92.2509 12.0082 93.3223 12.4635 94.2161 13.1764C94.5415 13.5098 94.7951 13.9065 94.961 14.3419C95.127 14.7773 95.2018 15.2421 95.1809 15.7076C95.1927 16.3753 95.0392 17.0355 94.7343 17.6296C94.4293 18.2237 93.9823 18.7332 93.4329 19.1128C92.1017 20.029 90.5068 20.4835 88.8926 20.4068C87.3224 20.4791 85.7661 20.0841 84.4205 19.2717C83.8882 18.9201 83.4444 18.4504 83.1234 17.8991C82.8025 17.3479 82.6132 16.7299 82.5703 16.0935H86.2593C86.5657 17.1151 87.4624 17.6258 88.9721 17.6258C89.5967 17.6487 90.216 17.5037 90.7655 17.2059C90.9715 17.0965 91.1437 16.933 91.2637 16.733C91.3837 16.533 91.4469 16.304 91.4465 16.0708C91.4465 15.3898 90.8449 14.9357 89.6418 14.6633L87.0538 14.0844C84.2616 13.532 82.8654 12.1738 82.8654 10.0096C82.8515 9.37284 82.9931 8.74233 83.2779 8.17269C83.5627 7.60305 83.9822 7.11147 84.4999 6.74057Z" fill="#FEFEFE"/>
<path d="M101.697 2.47363V5.95828H104.739V8.9208H101.697V15.3566C101.664 15.6069 101.69 15.8615 101.773 16.1001C101.855 16.3388 101.992 16.5548 102.173 16.7311C102.354 16.9075 102.573 17.0392 102.814 17.1158C103.054 17.1925 103.31 17.212 103.559 17.1727C103.937 17.1928 104.316 17.1928 104.694 17.1727V20.0444C104.073 20.162 103.442 20.219 102.81 20.2147C101.503 20.3276 100.195 20.0086 99.0868 19.3066C98.6809 18.925 98.3675 18.4555 98.1708 17.9342C97.9741 17.4129 97.8992 16.8534 97.9518 16.2987V8.9208H95.6816V5.95828H97.9518V2.47363H101.697Z" fill="#FEFEFE"/>
<path d="M119.472 20.1247H115.783V17.8546H115.556C115.239 18.6642 114.654 19.3411 113.899 19.7728C112.878 20.3277 111.711 20.5556 110.556 20.4256C109.401 20.2957 108.313 19.8143 107.441 19.0464C106.956 18.5165 106.583 17.895 106.344 17.2184C106.104 16.5419 106.002 15.8242 106.045 15.1077V5.81152H109.813V14.1656C109.813 16.152 110.744 17.1508 112.605 17.1508C113.02 17.1738 113.435 17.1122 113.825 16.9697C114.216 16.8273 114.573 16.607 114.875 16.3222C115.161 16.0205 115.382 15.6634 115.525 15.273C115.667 14.8825 115.728 14.467 115.704 14.0521V5.81152H119.472V20.1247Z" fill="#FEFEFE"/>
<path d="M122.674 18.3547C121.561 16.7806 121.013 14.8766 121.119 12.9518C121.01 11.0233 121.567 9.11601 122.696 7.54885C123.195 6.90504 123.841 6.38985 124.579 6.04629C125.318 5.70272 126.128 5.54073 126.942 5.57384C127.849 5.55777 128.744 5.78929 129.53 6.24353C130.267 6.67264 130.853 7.31876 131.209 8.09368H131.436V0.352539H135.205V20.1254H131.55V17.8552H131.323C130.941 18.6188 130.341 19.2511 129.598 19.6713C128.783 20.1131 127.868 20.336 126.942 20.3183C126.126 20.3527 125.313 20.1926 124.571 19.8511C123.829 19.5097 123.179 18.9968 122.674 18.3547ZM125.852 9.87573C125.235 10.7828 124.936 11.8683 125.001 12.9631C124.938 14.0613 125.237 15.1499 125.852 16.0618C126.142 16.4137 126.506 16.6971 126.918 16.8916C127.33 17.0861 127.78 17.187 128.236 17.187C128.691 17.187 129.141 17.0861 129.554 16.8916C129.966 16.6971 130.33 16.4137 130.619 16.0618C131.234 15.1541 131.533 14.0691 131.471 12.9745C131.534 11.878 131.231 10.7916 130.608 9.88708C130.322 9.53178 129.96 9.24512 129.548 9.04817C129.137 8.85122 128.686 8.74899 128.23 8.74899C127.774 8.74899 127.323 8.85122 126.912 9.04817C126.5 9.24512 126.138 9.53178 125.852 9.88708V9.87573Z" fill="#FEFEFE"/>
<path d="M137.852 3.28045C137.653 3.11264 137.495 2.90191 137.388 2.66404C137.282 2.42618 137.231 2.16737 137.239 1.90703C137.23 1.64645 137.28 1.38709 137.386 1.14896C137.492 0.910837 137.652 0.700302 137.852 0.533598C138.323 0.18699 138.891 0 139.476 0C140.06 0 140.629 0.18699 141.099 0.533598C141.295 0.703043 141.451 0.914368 141.555 1.15204C141.659 1.38972 141.709 1.6477 141.7 1.90703C141.708 2.16624 141.658 2.42397 141.554 2.66152C141.45 2.89907 141.295 3.11049 141.099 3.28045C140.639 3.64715 140.063 3.83648 139.476 3.81394C138.887 3.84171 138.309 3.65179 137.852 3.28045ZM137.58 5.81165H141.348V20.1248H137.58V5.81165Z" fill="#FEFEFE"/>
<path d="M144.761 18.4441C143.452 16.9281 142.784 14.9617 142.9 12.9618C142.841 11.9718 142.978 10.9799 143.304 10.043C143.629 9.10616 144.136 8.24268 144.796 7.50212C145.461 6.82189 146.264 6.29173 147.15 5.94718C148.037 5.60264 148.987 5.45167 149.937 5.5044C150.888 5.45418 151.84 5.604 152.729 5.9442C153.619 6.28439 154.427 6.80739 155.102 7.47941C156.423 8.99017 157.099 10.9582 156.986 12.9618C157.103 14.9639 156.431 16.9323 155.113 18.4441C153.692 19.722 151.849 20.4289 149.937 20.4289C148.026 20.4289 146.183 19.722 144.761 18.4441ZM152.276 16.174C152.885 15.2138 153.175 14.0855 153.104 12.9504C153.172 11.8157 152.882 10.6883 152.276 9.72684C152.011 9.35782 151.659 9.06069 151.251 8.86246C150.842 8.66423 150.391 8.57119 149.937 8.59178C149.485 8.56892 149.035 8.66104 148.628 8.85954C148.221 9.05803 147.871 9.35642 147.61 9.72684C147 10.687 146.706 11.8145 146.771 12.9504C146.703 14.0903 146.997 15.2223 147.61 16.1854C147.885 16.5432 148.238 16.8331 148.643 17.0326C149.047 17.2321 149.492 17.3359 149.943 17.3359C150.394 17.3359 150.839 17.2321 151.243 17.0326C151.648 16.8331 152.001 16.5432 152.276 16.1854V16.174Z" fill="#FEFEFE"/>
</svg>
