<svg width="72" height="72" viewBox="0 0 72 72" fill="none" xmlns="http://www.w3.org/2000/svg">
<path d="M36 0C36 19.8823 19.8823 36 0 36C19.8823 36 36 52.1177 36 72C36 52.1177 52.1177 36 72 36C52.1177 36 36 19.8823 36 0Z" fill="#FEFEFE"/>
<path d="M0 36C19.8823 36 36 19.8823 36 0C16.1177 5.08626e-06 0 16.1178 0 36Z" fill="#FEFEFE"/>
<path d="M72 36C72 55.8823 55.8823 72 36 72C36 52.1177 52.1177 36 72 36Z" fill="#FEFEFE"/>
<path d="M36 0C55.8823 0 72 16.1177 72 36C52.1177 36 36 19.8823 36 0Z" fill="#FEFEFE"/>
<path d="M0 36C19.8823 36 36 52.1177 36 72C16.1177 72 0 55.8823 0 36Z" fill="#FEFEFE"/>
</svg>
