<svg width="24" height="25" viewBox="0 0 24 25" fill="none" xmlns="http://www.w3.org/2000/svg">
<path d="M18.8902 6.8499C18.7242 6.44406 18.5397 6.1489 18.2261 5.8353C17.9125 5.52169 17.6174 5.33722 17.2115 5.17119C16.8979 5.04206 16.4367 4.91293 15.5697 4.85759C14.6289 4.82069 14.3522 4.80225 11.9909 4.80225C11.6958 4.80225 11.4375 4.80225 11.1977 4.80225C9.55586 4.80225 9.22381 4.82069 8.41213 4.85759C7.5451 4.89448 7.08392 5.04206 6.77031 5.17119C6.36447 5.33722 6.06931 5.52169 5.75571 5.8353C5.4421 6.1489 5.25763 6.44406 5.0916 6.8499C4.96247 7.16351 4.83334 7.62469 4.778 8.49172C4.7411 9.43253 4.72266 9.70924 4.72266 12.0705C4.72266 14.4318 4.72266 14.7085 4.778 15.6493C4.81489 16.5163 4.96247 16.9775 5.0916 17.2911C5.25763 17.6969 5.4421 17.9921 5.75571 18.3057C6.06931 18.6193 6.36447 18.8038 6.77031 18.9698C7.08392 19.0989 7.5451 19.2281 8.41213 19.2834C9.35294 19.3203 9.62965 19.3388 11.9909 19.3388C14.3522 19.3388 14.6289 19.3388 15.5697 19.2834C16.4367 19.2465 16.8979 19.0989 17.2115 18.9698C17.6174 18.8038 17.9125 18.6193 18.2261 18.3057C18.5397 17.9921 18.7242 17.6969 18.8902 17.2911C19.0194 16.9775 19.1485 16.5163 19.2038 15.6493C19.2407 14.7085 19.2592 14.4318 19.2592 12.0705C19.2592 9.70924 19.2407 9.43253 19.2038 8.49172C19.1669 7.62469 19.0194 7.16351 18.8902 6.8499ZM11.9909 16.6085C9.48207 16.6085 7.43442 14.5793 7.43442 12.0705C7.43442 9.56166 9.46362 7.53245 11.9725 7.51401C14.4813 7.51401 16.5105 9.54321 16.5105 12.0705C16.5474 14.5793 14.4998 16.6085 11.9909 16.6085ZM16.7134 8.39948C16.1231 8.39948 15.6435 7.91985 15.6435 7.32953C15.6435 6.73922 16.1231 6.25959 16.7134 6.25959C17.3037 6.25959 17.7834 6.73922 17.7834 7.32953C17.7834 7.91985 17.3037 8.39948 16.7134 8.39948Z" fill="#FEFEFE"/>
<path d="M11.9906 15.0223C13.6207 15.0223 14.9422 13.7008 14.9422 12.0707C14.9422 10.4406 13.6207 9.11914 11.9906 9.11914C10.3605 9.11914 9.03906 10.4406 9.03906 12.0707C9.03906 13.7008 10.3605 15.0223 11.9906 15.0223Z" fill="#FEFEFE"/>
<path d="M23.9631 5.28176C23.8893 4.3225 23.7233 3.67684 23.3912 2.99429C23.1145 2.44087 22.8009 2.01658 22.3582 1.59229C21.5649 0.835949 20.5872 0.374765 19.4435 0.208739C18.8901 0.134949 18.7794 0.0980547 15.9016 0.0980547H11.9908C6.99154 0.0796074 5.5342 0.0796074 5.23905 0.116502C4.206 0.208739 3.57879 0.356318 2.87779 0.706817C2.34281 0.96508 1.91852 1.27868 1.49424 1.72142C0.737894 2.49621 0.27671 3.47392 0.110684 4.6361C0.0368947 5.18952 0 5.30021 0 8.15955C0 9.11881 0 10.3732 0 12.0704C0 17.0696 0 18.527 0.0368947 18.8221C0.129131 19.8183 0.27671 20.4455 0.608762 21.1465C1.23597 22.4562 2.4535 23.4524 3.89239 23.8213C4.39047 23.9505 4.92544 24.0243 5.62644 24.0427C5.9216 24.0612 8.94696 24.0612 11.9723 24.0612C14.9977 24.0612 18.0231 24.0612 18.3182 24.0427C19.1299 24.0058 19.6095 23.9505 20.1261 23.8029C21.5649 23.4339 22.7456 22.4562 23.4097 21.128C23.7417 20.4639 23.9078 19.7998 23.9816 18.859C24 18.6561 24 15.354 24 12.0704C23.9816 8.76831 23.9816 5.48468 23.9631 5.28176ZM20.7902 15.723C20.7533 16.6638 20.6057 17.3094 20.3843 17.8629C20.163 18.4532 19.8493 18.9328 19.3697 19.4309C18.8716 19.929 18.392 20.2241 17.8017 20.4455C17.2298 20.6668 16.6026 20.8144 15.6434 20.8513C14.7025 20.9067 14.3889 20.9251 11.9908 20.9251C9.59262 20.9251 9.27902 20.9067 8.3382 20.8698C7.39739 20.8329 6.75173 20.6853 6.17986 20.4639C5.58955 20.2426 5.10992 19.929 4.61184 19.4493C4.11376 18.9512 3.8186 18.4716 3.59723 17.8813C3.37586 17.3094 3.22829 16.6822 3.19139 15.723C3.1545 14.7821 3.13605 14.4685 3.13605 12.0704C3.13605 9.67223 3.1545 9.35862 3.19139 8.41781C3.22829 7.47699 3.37586 6.83134 3.59723 6.27792C3.8186 5.6876 4.13221 5.20797 4.61184 4.70989C5.10992 4.21181 5.58955 3.91666 6.17986 3.69529C6.75173 3.47392 7.37894 3.32634 8.31975 3.28945C9.27902 3.2341 9.59262 3.21566 11.9908 3.21566C14.3889 3.21566 14.7025 3.2341 15.6434 3.271C16.5842 3.30789 17.2298 3.45547 17.8017 3.67684C18.392 3.89821 18.8716 4.21181 19.3697 4.69144C19.8678 5.18952 20.163 5.66915 20.3843 6.25947C20.6057 6.83134 20.7533 7.45855 20.7902 8.41781C20.8455 9.35862 20.8455 9.67223 20.8455 12.0704C20.8455 14.4685 20.8455 14.7821 20.7902 15.723Z" fill="#FEFEFE"/>
</svg>
