<svg width="22" height="23" viewBox="0 0 22 23" fill="none" xmlns="http://www.w3.org/2000/svg">
<path d="M0 1.58992C0 0.714262 0.727856 0.00397491 1.62576 0.00397491H20.3742C21.2721 0.00397491 22 0.714262 22 1.58992V20.5576C22 21.4336 21.2721 22.1436 20.3742 22.1436H1.62576C0.727856 22.1436 0 21.4336 0 20.5576V1.58992Z" fill="#FEFEFE"/>
<path fill-rule="evenodd" clip-rule="evenodd" d="M6.66973 18.5371V8.53985H3.34682V18.5371H6.66973ZM5.00826 7.17489C6.16702 7.17489 6.88826 6.40721 6.88826 5.44784C6.86666 4.46687 6.16702 3.72049 5.03024 3.72049C3.89358 3.72049 3.15039 4.46687 3.15039 5.44784C3.15039 6.40721 3.87147 7.17489 4.9866 7.17489H5.00826Z" fill="#030303"/>
<path fill-rule="evenodd" clip-rule="evenodd" d="M8.50781 18.5371H11.8307V12.9542C11.8307 12.6554 11.8523 12.3569 11.94 12.1433C12.1802 11.5464 12.727 10.9281 13.645 10.9281C14.8473 10.9281 15.3283 11.8449 15.3283 13.1888V18.5371H18.6509V12.8048C18.6509 9.73411 17.0116 8.30526 14.8254 8.30526C13.0328 8.30526 12.2458 9.30723 11.8086 9.98971H11.8308V8.53985H8.5079C8.55151 9.47793 8.50781 18.5371 8.50781 18.5371Z" fill="#030303"/>
</svg>
