<svg width="29" height="28" viewBox="0 0 29 28" fill="none" xmlns="http://www.w3.org/2000/svg">
<path fill-rule="evenodd" clip-rule="evenodd" d="M14.5 0.544064C14.5398 2.78207 15.0711 4.98637 16.0587 7C16.2779 7.41767 16.5207 7.82016 16.7854 8.20582C17.4278 8.06347 18.0609 7.86748 18.6776 7.61812C20.7977 6.83318 22.7421 5.63784 24.3996 4.10051C22.8622 5.75798 21.6669 7.70239 20.8819 9.82242C20.649 10.3986 20.4626 10.989 20.323 11.5881C20.8453 11.913 21.3945 12.1986 21.9667 12.4413C24.0208 13.3854 26.2409 13.915 28.5 14C26.2409 14.085 24.0208 14.6146 21.9667 15.5587C21.3542 15.8185 20.7681 16.1275 20.2132 16.4811C20.2987 16.9409 20.4116 17.3972 20.552 17.8476C21.2775 19.9698 22.4605 21.9041 24.0148 23.5148C22.4042 21.9605 20.4699 20.7774 18.3477 20.0519C17.8568 19.899 17.359 19.7786 16.8572 19.6907C16.5645 20.1077 16.2976 20.5448 16.0587 21C15.0711 23.0136 14.5398 25.2179 14.5 27.4559C14.4602 25.2179 13.9289 23.0136 12.9413 21C12.7221 20.5823 12.4793 20.1799 12.2147 19.7942C11.5722 19.9365 10.9392 20.1325 10.3225 20.3819C8.20246 21.1668 6.25805 22.3622 4.60057 23.8995C6.13791 22.242 7.33325 20.2976 8.11818 18.1776C8.35114 17.6014 8.53752 17.011 8.67709 16.412C8.1548 16.0871 7.60552 15.8014 7.03333 15.5587C4.97922 14.6146 2.75908 14.085 0.5 14C2.75908 13.915 4.97922 13.3854 7.03333 12.4413C7.64579 12.1815 8.23199 11.8725 8.78696 11.5188C8.70138 11.059 8.58848 10.6027 8.44817 10.1524C7.72267 8.0302 6.53961 6.0959 4.98528 4.48522C6.59596 6.03955 8.53026 7.22261 10.6525 7.94811C11.1432 8.10102 11.6411 8.22136 12.1428 8.30929C12.4355 7.89231 12.7024 7.45517 12.9413 7C13.9289 4.98637 14.4602 2.78207 14.5 0.544064ZM14.5 0C14.5032 0.18152 14.5032 0.362902 14.5 0.544064C14.4968 0.362902 14.4968 0.18152 14.5 0ZM4.60057 4.10051C4.73121 4.22657 4.85946 4.35484 4.98528 4.48522C4.8549 4.3594 4.72664 4.23115 4.60057 4.10051ZM14.5 28C14.4968 27.8185 14.4968 27.6371 14.5 27.4559C14.5032 27.6371 14.5032 27.8185 14.5 28ZM24.3996 23.8995C24.2689 23.7734 24.1407 23.6452 24.0148 23.5148C24.1452 23.6406 24.2735 23.7689 24.3996 23.8995Z" fill="#FEFEFE"/>
</svg>
