<svg width="20" height="20" viewBox="0 0 20 20" fill="none" xmlns="http://www.w3.org/2000/svg">
<path fill-rule="evenodd" clip-rule="evenodd" d="M18.9998 0.0245659C19.331 0.0082528 19.6644 0 19.9998 0C19.9998 0.335326 19.9915 0.668724 19.9752 1C19.8918 2.69373 19.5977 4.33206 19.1185 5.88932C19.6847 7.1432 19.9998 8.53474 19.9998 9.99988C19.9998 15.5227 15.5227 19.9998 9.99988 19.9998C8.53474 19.9998 7.1432 19.6847 5.88932 19.1185C4.33206 19.5977 2.69373 19.8918 1 19.9752C0.668724 19.9915 0.335326 19.9998 0 19.9998C0 19.6644 0.0082525 19.331 0.0245655 18.9998C0.107969 17.306 0.402071 15.6677 0.881209 14.1104C0.315092 12.8566 0 11.465 0 9.99988C0 4.4771 4.4771 0 9.99988 0C11.465 0 12.8566 0.315093 14.1104 0.88121C15.6677 0.402072 17.306 0.10797 18.9998 0.0245659ZM1.56657 15.3759C1.27646 16.5362 1.09302 17.7387 1.02729 18.9725C2.26105 18.9067 3.46357 18.7233 4.62383 18.4332C3.39602 17.6489 2.3509 16.6037 1.56657 15.3759ZM18.4332 4.62383C17.6489 3.39602 16.6037 2.35091 15.3759 1.56657C16.5362 1.27646 17.7387 1.09302 18.9725 1.02729C18.9067 2.26105 18.7233 3.46357 18.4332 4.62383Z" fill="#FEFEFE"/>
<path fill-rule="evenodd" clip-rule="evenodd" d="M19.1219 5.87357C16.4458 14.5108 9.21623 18.2025 5.87875 19.1216L4.61328 18.4285L5.61327 18.1575C8.74446 17.2952 15.6241 13.7839 18.1667 5.57762L18.4295 4.6123L19.1219 5.87357Z" fill="#030303"/>
</svg>
