<svg width="22" height="22" viewBox="0 0 22 22" fill="none" xmlns="http://www.w3.org/2000/svg">
<path d="M22 11C22 12.0256 21.2623 12.7948 20.6115 13.4735C20.241 13.8598 19.8579 14.2592 19.7132 14.6092C19.5801 14.9307 19.5721 15.4633 19.5643 15.9782C19.5498 16.9367 19.5334 18.023 18.7782 18.7782C18.0229 19.5334 16.9366 19.5498 15.9782 19.5643C15.4632 19.5721 14.9306 19.5801 14.6091 19.7132C14.2592 19.8579 13.8597 20.241 13.4735 20.6115C12.7948 21.2623 12.0256 22 11 22C9.97436 22 9.20519 21.2623 8.52652 20.6115C8.14023 20.241 7.7408 19.8579 7.39082 19.7132C7.06937 19.5801 6.53681 19.5721 6.02176 19.5643C5.06331 19.5498 3.97701 19.5334 3.22179 18.7782C2.46658 18.023 2.45018 16.9367 2.43569 15.9782C2.42793 15.4633 2.41987 14.9307 2.28684 14.6092C2.14211 14.2592 1.75904 13.8598 1.38852 13.4735C0.737662 12.7948 0 12.0256 0 11C0 9.97441 0.737662 9.20519 1.38852 8.52652C1.75903 8.14018 2.14211 7.7408 2.28684 7.39082C2.41987 7.06932 2.42793 6.53672 2.43569 6.02176C2.45018 5.06331 2.46658 3.97701 3.22184 3.22179C3.97705 2.46658 5.06336 2.45018 6.02176 2.43569C6.53681 2.42793 7.06942 2.41987 7.39091 2.28684C7.7408 2.14211 8.14028 1.75904 8.52652 1.38852C9.20519 0.737662 9.97441 0 11 0C12.0256 0 12.7948 0.737662 13.4735 1.38852C13.8598 1.75903 14.2592 2.14211 14.6092 2.28684C14.9306 2.41987 15.4632 2.42793 15.9782 2.43569C16.9367 2.45018 18.023 2.46658 18.7782 3.22179C19.5334 3.97701 19.5498 5.06331 19.5643 6.02176C19.5721 6.53672 19.5801 7.06932 19.7132 7.39082C19.8579 7.7408 20.241 8.14018 20.6115 8.52652C21.2623 9.20519 22 9.97441 22 11Z" fill="#FEFEFE"/>
</svg>
