<svg width="28" height="23" viewBox="0 0 28 23" fill="none" xmlns="http://www.w3.org/2000/svg">
<g clip-path="url(#clip0_901_72)">
<path d="M22.3772 13.8783C22.1549 13.8783 21.9375 13.8114 21.7527 13.6859C21.5678 13.5604 21.4238 13.3821 21.3387 13.1734C21.2536 12.9648 21.2313 12.7352 21.2747 12.5137C21.3181 12.2921 21.4251 12.0887 21.5823 11.929C21.7395 11.7693 21.9398 11.6605 22.1579 11.6165C22.3759 11.5724 22.6019 11.595 22.8073 11.6814C23.0127 11.7679 23.1883 11.9142 23.3118 12.102C23.4353 12.2898 23.5012 12.5106 23.5012 12.7364C23.5012 13.0393 23.3828 13.3297 23.172 13.5439C22.9612 13.758 22.6753 13.8783 22.3772 13.8783ZM16.753 13.8783C16.5308 13.878 16.3136 13.8107 16.129 13.6849C15.9444 13.5592 15.8007 13.3808 15.7159 13.1721C15.6311 12.9634 15.6091 12.7338 15.6527 12.5125C15.6963 12.2911 15.8035 12.0878 15.9608 11.9283C16.118 11.7688 16.3183 11.6602 16.5363 11.6163C16.7543 11.5724 16.9802 11.5951 17.1855 11.6816C17.3908 11.7681 17.5663 11.9145 17.6897 12.1022C17.8131 12.29 17.879 12.5107 17.879 12.7364C17.879 12.8866 17.8499 13.0352 17.7932 13.1739C17.7366 13.3125 17.6537 13.4385 17.5491 13.5446C17.4445 13.6506 17.3204 13.7347 17.1838 13.792C17.0472 13.8493 16.9008 13.8786 16.753 13.8783ZM25.0838 20.418C26.8543 19.1085 28.0052 17.1716 28.0052 15.0222C28.0052 11.0781 24.2282 7.88232 19.5651 7.88232C14.9019 7.88232 11.125 11.0781 11.125 15.0222C11.125 18.9663 14.9 22.1601 19.5651 22.1601C20.496 22.1614 21.4226 22.0302 22.3177 21.7704C22.3977 21.7445 22.4812 21.7314 22.5652 21.7314C22.7238 21.7337 22.8789 21.7795 23.014 21.8639L24.8593 22.9454C24.9076 22.9788 24.9641 22.9977 25.0224 23C25.0593 23 25.0959 22.9926 25.13 22.9782C25.1641 22.9637 25.1951 22.9426 25.2211 22.916C25.2471 22.8894 25.2677 22.8578 25.2817 22.823C25.2956 22.7883 25.3027 22.7511 25.3024 22.7136C25.2962 22.6425 25.2814 22.5724 25.2583 22.505C25.2468 22.4641 25.0205 21.6028 24.8747 21.065C24.856 21.0064 24.8456 20.9454 24.844 20.8838C24.8439 20.7926 24.8652 20.7028 24.9063 20.6218C24.9473 20.5408 25.0069 20.4709 25.0799 20.418" fill="#FEFEFE"/>
<path d="M13.4926 7.19639C13.2271 7.19639 12.9675 7.11639 12.7466 6.96651C12.5258 6.81662 12.3537 6.60358 12.2521 6.35433C12.1505 6.10508 12.1239 5.83082 12.1757 5.56622C12.2275 5.30161 12.3554 5.05856 12.5432 4.86779C12.731 4.67703 12.9702 4.54711 13.2307 4.49448C13.4911 4.44185 13.7611 4.46886 14.0065 4.5721C14.2518 4.67535 14.4615 4.85018 14.6091 5.0745C14.7566 5.29882 14.8354 5.56255 14.8354 5.83233C14.8354 6.1941 14.6939 6.54106 14.4421 6.79687C14.1903 7.05268 13.8488 7.19639 13.4926 7.19639ZM6.74632 7.19639C6.48075 7.19639 6.22114 7.11639 6.00033 6.96651C5.77952 6.81662 5.60741 6.60358 5.50579 6.35433C5.40416 6.10508 5.37757 5.83082 5.42938 5.56622C5.48119 5.30161 5.60907 5.05856 5.79686 4.86779C5.98464 4.67703 6.2239 4.54711 6.48436 4.49448C6.74483 4.44185 7.01481 4.46886 7.26016 4.5721C7.50552 4.67535 7.71522 4.85018 7.86277 5.0745C8.01031 5.29882 8.08906 5.56255 8.08906 5.83233C8.08906 6.1941 7.94759 6.54106 7.69578 6.79687C7.44397 7.05268 7.10243 7.19639 6.74632 7.19639ZM10.1204 0C4.53079 0 0 3.83691 0 8.57409C0 11.1483 1.36384 13.473 3.49688 15.0436C3.58455 15.1068 3.65607 15.1903 3.70546 15.2873C3.75485 15.3842 3.78067 15.4918 3.78078 15.6009C3.77832 15.675 3.76606 15.7484 3.74433 15.8192C3.57361 16.4662 3.30123 17.4989 3.2878 17.5477C3.2595 17.6288 3.24145 17.7133 3.23409 17.799C3.23409 17.844 3.24283 17.8885 3.25982 17.93C3.27681 17.9715 3.30171 18.0092 3.33309 18.0409C3.36446 18.0726 3.40169 18.0976 3.44264 18.1147C3.48359 18.1317 3.52745 18.1403 3.57169 18.14C3.63983 18.1363 3.70587 18.1148 3.76351 18.0777L5.98096 16.7779C6.1441 16.6771 6.33092 16.6226 6.52189 16.6201C6.62264 16.6199 6.72285 16.635 6.81921 16.6649C7.89329 16.9773 9.00513 17.1354 10.1224 17.1345C10.3142 17.1345 10.4945 17.1345 10.6786 17.1209C10.4536 16.4448 10.3383 15.7359 10.3372 15.0222C10.3353 10.7059 14.469 7.21003 19.5657 7.21003C19.7575 7.21003 19.934 7.21003 20.1162 7.22562C19.3527 3.12954 15.1691 0 10.1204 0Z" fill="#FEFEFE"/>
</g>
<defs>
<clipPath id="clip0_901_72">
<rect width="28" height="23" fill="white"/>
</clipPath>
</defs>
</svg>
