<svg width="20" height="20" viewBox="0 0 20 20" fill="none" xmlns="http://www.w3.org/2000/svg">
<path fill-rule="evenodd" clip-rule="evenodd" d="M17.086 2.90613C15.3785 1.2049 13.108 0.179557 10.6975 0.0210744C8.28694 -0.137408 5.90071 0.581782 3.98329 2.04468C2.06586 3.50758 0.747975 5.61443 0.275115 7.9728C-0.197746 10.3312 0.206661 12.7802 1.41301 14.8638L0 19.9999L5.27847 18.6216C6.73858 19.4131 8.37467 19.8277 10.0372 19.8274C12.0069 19.8283 13.9327 19.2477 15.5709 18.159C17.2091 17.0703 18.4862 15.5224 19.2407 13.7112C19.9952 11.8999 20.1932 9.90659 19.8097 7.9833C19.4261 6.06001 18.4783 4.29314 17.086 2.90613ZM14.9205 13.4518C14.7134 14.0298 13.7024 14.5876 13.2408 14.6294C12.7793 14.6711 12.357 14.8342 10.2551 14.0096C7.71469 13.0166 6.12168 10.4364 5.99716 10.2707C5.87264 10.105 4.98207 8.92337 4.98207 7.71076C4.97536 7.32523 5.04926 6.94252 5.19908 6.58694C5.3489 6.23136 5.57136 5.91069 5.85234 5.64528C5.93552 5.55099 6.03736 5.4748 6.15147 5.42148C6.26558 5.36816 6.38952 5.33885 6.51553 5.33539H6.9933C7.1706 5.34347 7.36685 5.35156 7.55363 5.76385C7.77424 6.25428 8.25743 7.47902 8.31969 7.60297C8.35933 7.6678 8.38196 7.7415 8.38551 7.81731C8.38906 7.89312 8.37341 7.96861 8.33999 8.03682C8.27778 8.18539 8.19436 8.32425 8.09231 8.44911C7.96779 8.59462 7.82974 8.77247 7.71875 8.88295C7.60777 8.99343 7.4643 9.14164 7.60912 9.38955C7.98333 10.0264 8.44989 10.6048 8.99371 11.1061C9.58341 11.629 10.2604 12.0453 10.9941 12.3362C11.2431 12.4602 11.388 12.4386 11.5355 12.2742C11.683 12.1098 12.1567 11.5507 12.3232 11.3028C12.4897 11.0549 12.6548 11.0966 12.8822 11.1788C13.1096 11.261 14.3331 11.8565 14.5821 11.9913C14.8312 12.126 14.9963 12.1772 15.0585 12.281C15.1208 12.3847 15.1208 12.8724 14.9137 13.4518H14.9205Z" fill="#FEFEFE"/>
</svg>
