{
    "asset" : {
        "generator" : "Khronos glTF Blender I/O v1.1.46",
        "version" : "2.0"
    },
    "scene" : 0,
    "scenes" : [
        {
            "name" : "Scene",
            "nodes" : [
                0
            ]
        }
    ],
    "nodes" : [
        {
            "mesh" : 0,
            "name" : "united3_chicken"
        }
    ],
    "meshes" : [
        {
            "name" : "Sphere.021",
            "primitives" : [
                {
                    "attributes" : {
                        "POSITION" : 0,
                        "NORMAL" : 1,
                        "TEXCOORD_0" : 2
                    },
                    "indices" : 3
                }
            ]
        }
    ],
    "accessors" : [
        {
            "bufferView" : 0,
            "componentType" : 5126,
            "count" : 1350,
            "max" : [
                1.245058536529541,
                2.281200885772705,
                2.942112922668457
            ],
            "min" : [
                -1.248274326324463,
                -3.0546817779541016,
                -2.8909130096435547
            ],
            "type" : "VEC3"
        },
        {
            "bufferView" : 1,
            "componentType" : 5126,
            "count" : 1350,
            "type" : "VEC3"
        },
        {
            "bufferView" : 2,
            "componentType" : 5126,
            "count" : 1350,
            "type" : "VEC2"
        },
        {
            "bufferView" : 3,
            "componentType" : 5123,
            "count" : 4812,
            "type" : "SCALAR"
        }
    ],
    "bufferViews" : [
        {
            "buffer" : 0,
            "byteLength" : 16200,
            "byteOffset" : 0
        },
        {
            "buffer" : 0,
            "byteLength" : 16200,
            "byteOffset" : 16200
        },
        {
            "buffer" : 0,
            "byteLength" : 10800,
            "byteOffset" : 32400
        },
        {
            "buffer" : 0,
            "byteLength" : 9624,
            "byteOffset" : 43200
        }
    ],
    "buffers" : [
        {
            "byteLength" : 52824,
            "uri" : "data:application/octet-stream;base64,"
        }
    ]
}
