<svg width="50" height="50" viewBox="0 0 50 50" fill="none" xmlns="http://www.w3.org/2000/svg">
<path d="M0 5C0 2.23858 2.23858 0 5 0H45C47.7614 0 50 2.23858 50 5V45C50 47.7614 47.7614 50 45 50H5C2.23858 50 0 47.7614 0 45V5Z" fill="#030303"/>
<path d="M21.9818 29.4048V25.2143C21.9818 21.881 20.3627 19.8572 17.6961 19.8572C15.1723 19.8572 13.4342 22 13.4342 25.1191C13.4342 28.4524 15.077 30.5238 17.6485 30.6667V39C10.958 38.6667 6.57705 33.3333 6.57705 25.2619C6.57705 16.7143 10.6485 11 16.958 11C21.6723 11 24.7199 14.3096 25.1961 19.4048H25.3866C26.1246 15.2143 29.1485 12.2619 33.3151 12.2619C38.9818 12.2619 42.6484 17.2857 42.6484 24.9286C42.6484 32.9048 38.2913 38.2143 31.6723 38.3333V30.4286C34.3389 30.3333 36.1484 28.3095 36.1484 25.3095C36.1484 22.1667 34.6008 20.3572 32.1246 20.3572C29.6485 20.3572 28.0056 22.2857 28.0056 25.2381V29.4048H21.9818Z" fill="#FEFEFE"/>
</svg>
