<svg width="50" height="50" viewBox="0 0 50 50" fill="none" xmlns="http://www.w3.org/2000/svg">
<path d="M22.0825 30.034L22.0825 25.2449C22.0825 21.4354 20.2871 19.1224 17.33 19.1224C14.5314 19.1224 12.604 21.5714 12.604 25.1361C12.604 28.9456 14.4257 31.3129 17.2772 31.4762L17.2772 41C9.85808 40.619 5 34.5238 5 25.2993C5 15.5306 9.51485 9 16.5116 9C21.7393 9 25.1188 12.7823 25.6469 18.6054L25.8581 18.6054C26.6766 13.8163 30.0297 10.4422 34.6502 10.4422C40.934 10.4422 45 16.1837 45 24.9184C45 34.034 40.1683 40.102 32.8284 40.2381L32.8284 31.2041C35.7855 31.0952 37.7921 28.7823 37.7921 25.3537C37.7921 21.7619 36.0759 19.6939 33.33 19.6939C30.5842 19.6939 28.7624 21.898 28.7624 25.2721L28.7624 30.034L22.0825 30.034Z" fill="#030303"/>
</svg>
