<svg xmlns="http://www.w3.org/2000/svg" width="600" height="498" viewBox="0 0 600 498">
  <path d="M398.07,117.22C412.66,88.46,445.28,74.28,476.39,73c-3.61,68.17,16.81,180.27-35.1,236.23,17.07,1.4,52.54,29.21,50.67,30.15-49.14,39.91-97.9,115.49-167.9,71.79C309.6,420.12,300.17,425,300.17,425s-9.51-4.92-24.1-13.94C206,455,157.12,379.29,108,339.38c-1.71-1.09,33.81-28.86,50.95-30.2C108.11,256.7,127.05,137.89,124,73c36.42,1,74.3,21.75,84.07,58.66,47.77-2.18,92.9,33.91,92.16,83.33-.7-49.41,44.31-85.58,92.09-83.33A83.55,83.55,0,0,1,398.07,117.22Z" fill-rule="evenodd"/>
</svg>
