<svg xmlns="http://www.w3.org/2000/svg" width="600" height="498" viewBox="0 0 600 498">
  <path d="M389.91,127.84c13.38-26.45,43.29-39.48,71.81-40.66-3.31,62.68,15.41,165.75-32.18,217.2,15.65,1.28,48.17,26.85,46.45,27.72-45.05,36.69-89.75,106.18-153.93,66-13.26,8.23-21.9,12.72-21.9,12.72s-8.72-4.52-22.1-12.82C213.83,438.42,169,368.79,124,332.1c-1.57-1,31-26.54,46.71-27.77-46.64-48.25-29.27-157.49-32.12-217.14,33.39.93,68.12,20,77.08,53.93,43.8-2,85.17,31.18,84.5,76.62-.65-45.43,40.62-78.69,84.43-76.62A77,77,0,0,1,389.91,127.84Z" fill-rule="evenodd"/>
</svg>
